{
    "asset" : {
        "generator" : "Khronos glTF Blender I/O v3.2.43",
        "version" : "2.0"
    },
    "scene" : 0,
    "scenes" : [
        {
            "name" : "Scene",
            "nodes" : [
                0,
                1
            ]
        }
    ],
    "nodes" : [
        {
            "mesh" : 0,
            "name" : "Cylinder",
            "scale" : [
                5.991237640380859,
                1,
                5.991237640380859
            ]
        },
        {
            "mesh" : 1,
            "name" : "FBHead",
            "scale" : [
                2.9490268230438232,
                2.9490268230438232,
                2.9490268230438232
            ],
            "translation" : [
                0,
                4.821986675262451,
                0
            ]
        }
    ],
    "meshes" : [
        {
            "name" : "Cylinder",
            "primitives" : [
                {
                    "attributes" : {
                        "POSITION" : 0,
                        "NORMAL" : 1,
                        "TEXCOORD_0" : 2
                    },
                    "indices" : 3
                }
            ]
        },
        {
            "name" : "FBHead_mesh",
            "primitives" : [
                {
                    "attributes" : {
                        "POSITION" : 4,
                        "NORMAL" : 5,
                        "TEXCOORD_0" : 6
                    },
                    "indices" : 7
                }
            ]
        }
    ],
    "accessors" : [
        {
            "bufferView" : 0,
            "componentType" : 5126,
            "count" : 448,
            "max" : [
                1.0977438688278198,
                1,
                1.0977439880371094
            ],
            "min" : [
                -1.0977439880371094,
                -1,
                -1.0977439880371094
            ],
            "type" : "VEC3"
        },
        {
            "bufferView" : 1,
            "componentType" : 5126,
            "count" : 448,
            "type" : "VEC3"
        },
        {
            "bufferView" : 2,
            "componentType" : 5126,
            "count" : 448,
            "type" : "VEC2"
        },
        {
            "bufferView" : 3,
            "componentType" : 5123,
            "count" : 756,
            "type" : "SCALAR"
        },
        {
            "bufferView" : 4,
            "componentType" : 5126,
            "count" : 18097,
            "max" : [
                0.9566180109977722,
                1.3854320049285889,
                1.2969399690628052
            ],
            "min" : [
                -0.9566180109977722,
                -1.7372360229492188,
                -0.932142972946167
            ],
            "type" : "VEC3"
        },
        {
            "bufferView" : 5,
            "componentType" : 5126,
            "count" : 18097,
            "type" : "VEC3"
        },
        {
            "bufferView" : 6,
            "componentType" : 5126,
            "count" : 18097,
            "type" : "VEC2"
        },
        {
            "bufferView" : 7,
            "componentType" : 5123,
            "count" : 107862,
            "type" : "SCALAR"
        }
    ],
    "bufferViews" : [
        {
            "buffer" : 0,
            "byteLength" : 5376,
            "byteOffset" : 0
        },
        {
            "buffer" : 0,
            "byteLength" : 5376,
            "byteOffset" : 5376
        },
        {
            "buffer" : 0,
            "byteLength" : 3584,
            "byteOffset" : 10752
        },
        {
            "buffer" : 0,
            "byteLength" : 1512,
            "byteOffset" : 14336
        },
        {
            "buffer" : 0,
            "byteLength" : 217164,
            "byteOffset" : 15848
        },
        {
            "buffer" : 0,
            "byteLength" : 217164,
            "byteOffset" : 233012
        },
        {
            "buffer" : 0,
            "byteLength" : 144776,
            "byteOffset" : 450176
        },
        {
            "buffer" : 0,
            "byteLength" : 215724,
            "byteOffset" : 594952
        }
    ],
    "buffers" : [
        {
            "byteLength" : 810676,
            "uri" : "data:application/octet-stream;base64,"
        }
    ]
}
